<svg width="10" height="16" viewBox="0 0 10 16" fill="none" xmlns="http://www.w3.org/2000/svg">
<path fill-rule="evenodd" clip-rule="evenodd" d="M9.33124 0.468802C9.63119 0.768846 9.7997 1.17574 9.7997 1.6C9.7997 2.02426 9.63119 2.43116 9.33124 2.7312L4.06244 8L9.33124 13.2688C9.62269 13.5706 9.78396 13.9747 9.78031 14.3942C9.77667 14.8138 9.6084 15.2151 9.31175 15.5117C9.01509 15.8084 8.61379 15.9766 8.19428 15.9803C7.77476 15.9839 7.3706 15.8227 7.06884 15.5312L0.668837 9.1312C0.368883 8.83116 0.200378 8.42426 0.200378 8C0.200378 7.57574 0.368883 7.16885 0.668837 6.8688L7.06884 0.468802C7.36888 0.168848 7.77577 0.000343323 8.20004 0.000343323C8.6243 0.000343323 9.03119 0.168848 9.33124 0.468802Z" fill="white"/>
</svg>
